# xmcd
#
# Track frame offsets:
#	150
#	15031
#	24257
#	36894
#	49383
#	60583
#	75606
#	88826
#	102513
#	117822
#	131178
#	144171
#	156394
#	170409
#	183739
#	197922
#	212209
#	223447
#	236036
#	249386
#	261888
#	276968
#	291270
#	303935
#	317815
#	331165
#
# Disc length: 4602 seconds
#
# Revision: 2
# Processed by: cddbd v1.5.2PL0 Copyright (c) Steve Scherf et al.
# Submitted via: audiograbber 1.83.01
#
DISCID=8611f81a
DTITLE=Various Artist - As As Good As It Gets: Country Blues [CD1/2)
DYEAR=2000
DGENRE=Country Blues
TTITLE0=Dixieland Jug Blowers - Boodle Am Shake
TTITLE1=Leadbelly - Midnight Special
TTITLE2=Big Bill Broonzy - Long Tall Mama
TTITLE3=Mississippi John Hurt - Candy Man
TTITLE4=Blind Willie McTell - Statesboro Blues
TTITLE5=Jim Jackson - Hestitation Blues
TTITLE6=Cannons Jug Stompers - Walk Right In
TTITLE7=Lonnie Johnson - Playing With the Strings
TTITLE8=Big Joe Williams - Baby Please Don't Go
TTITLE9=Blind Blake - Diddie Wa Diddie
TTITLE10=Pink Anderson and Simmie Dooley - Every Day in the Week Blues
TTITLE11=Memphis Minnie - Me and My Chauffeur Blues
TTITLE12=Blind Boy Fuller - Truckin' My Blues Away
TTITLE13=Robert Johnson - I Belive I'll Dust My Broom
TTITLE14=Blind Lemon Jefferson - Match Box Blues
TTITLE15=Ma Rainey - Ma Rainey's Black Bottom
TTITLE16=Tampa Red - It Hurts Me Too
TTITLE17=Sonny Terry - Harmonica Stomp
TTITLE18=Memphis Jug Band - Stealin' Stealin'
TTITLE19=Josh White - Blood Red River
TTITLE20=Tommy Johnson - Big Road Blues
TTITLE21=Furry Lewis - I Will Turn Your Money Green
TTITLE22=Tommy McClennan - Bottle It up and Go
TTITLE23=Barbecue Bob - Atlanta Moan
TTITLE24=Son House - Walking Blues
TTITLE25=Leroy Carr and Scrapper Blackwell - How Long, How Long Blues
EXTD=DISKY. DO 247302, Printed in EU.
EXTT0=
EXTT1=
EXTT2=
EXTT3=
EXTT4=
EXTT5=
EXTT6=
EXTT7=
EXTT8=
EXTT9=
EXTT10=
EXTT11=
EXTT12=
EXTT13=
EXTT14=
EXTT15=
EXTT16=
EXTT17=
EXTT18=
EXTT19=
EXTT20=
EXTT21=
EXTT22=
EXTT23=
EXTT24=
EXTT25=
PLAYORDER=
